<svg width="120" height="100" viewBox="0 0 120 100" fill="none" xmlns="http://www.w3.org/2000/svg">
<g id="triangles" clip-path="url(#clip0_1_2)">
<g id="lightgroup">
<path id="light" d="M46 48.268C47.3333 49.0378 47.3333 50.9623 46 51.7321L11.5 71.6506C10.1667 72.4204 8.5 71.4582 8.5 69.9186V30.0814C8.5 28.5418 10.1667 27.5796 11.5 28.3494L46 48.268Z" fill="#0086C4" fill-opacity="0.5"/>
</g>
<g id="darkgroup">
<path id="dark2" d="M46 48.268C47.3333 49.0378 47.3333 50.9623 46 51.7321L11.5 71.6506C10.1667 72.4204 8.5 71.4582 8.5 69.9186V30.0814C8.5 28.5418 10.1667 27.5796 11.5 28.3494L46 48.268Z" fill="#0086C4"/>
<path id="dark1" d="M65 48.268C66.3333 49.0378 66.3333 50.9623 65 51.7321L30.5 71.6506C29.1667 72.4204 27.5 71.4582 27.5 69.9186V30.0814C27.5 28.5418 29.1667 27.5796 30.5 28.3494L65 48.268Z" fill="#0086C4"/>
</g>
</g>
<defs>
<clipPath id="clip0_1_2">
<rect width="120" height="100" fill="white"/>
</clipPath>
</defs>
</svg>
